<svg version="1.1" xmlns="http://www.w3.org/2000/svg" xmlns:xlink="http://www.w3.org/1999/xlink" width="595.276pt" height="841.89pt" viewBox="0,0,181,256"><defs><clipPath id="clip-1"><path transform="translate(0,841.89) scale(1,-1)" d="M0,841.89h595.276v-841.89h-595.276z" id="clip_0" fill="none"></path></clipPath></defs><g fill="none" fill-rule="nonzero" stroke="none" stroke-width="1" stroke-linecap="butt" stroke-linejoin="miter" stroke-miterlimit="10" stroke-dasharray="" stroke-dashoffset="0" font-family="none" font-weight="none" font-size="none" text-anchor="none" style="mix-blend-mode: normal"><g transform="translate(-0.00509,0) scale(0.30408,0.30408)"><g id="layer_1"><g clip-path="url(#clip-1)"><path transform="translate(163.7666,655.0814) scale(1,-1)" d="M0,0h-18.753l-42.02,-33.708v33.708h-35.781v-97.789h35.35v46.627l2.578,1.432l19.184,-48.059h37.716l-28.016,72.199zM-98.066,18.456h471.487v15.279h-471.487zM308.563,43.256c-2.728,-2.786 -5.735,-4.179 -9.024,-4.179c-3.835,0 -6.925,1.486 -9.269,4.477c-2.335,2.983 -3.609,6.26 -3.809,9.836c-0.031,0.168 -0.042,0.317 -0.042,0.465v0.456v0.371v0.306c0.167,3.64 1.45,6.985 3.811,10.022c2.368,3.03 5.474,4.543 9.309,4.543h0.067h0.067c3.257,-0.037 6.237,-1.432 8.931,-4.191c2.706,-2.749 4.063,-6.436 4.063,-11.051c0,-4.582 -1.365,-8.259 -4.104,-11.055M299.933,72.273h-0.194h-0.2h-0.518c-0.176,0 -0.37,-0.018 -0.571,-0.045c-3.75,-0.298 -7.2,-2.044 -10.355,-5.258c-3.148,-3.204 -4.732,-7.432 -4.732,-12.651c0,-5.256 1.6,-9.502 4.798,-12.724c3.199,-3.233 6.697,-4.952 10.507,-5.185c0.144,-0.028 0.294,-0.045 0.435,-0.045h0.436h0.067h0.067c4.011,0.035 7.684,1.691 11.034,4.959c3.341,3.279 5.007,7.609 5.007,12.995c0,5.388 -1.642,9.706 -4.924,12.949c-3.281,3.241 -6.907,4.914 -10.857,5.005M303.014,57.729c-0.035,-0.261 -0.101,-0.541 -0.219,-0.829c-0.175,-0.398 -0.46,-0.743 -0.871,-1.048c-0.402,-0.306 -1.013,-0.464 -1.824,-0.464h-3.475v5.647h3.123c0.905,0 1.683,-0.167 2.335,-0.512c0.645,-0.342 0.972,-1.077 0.972,-2.21c0,-0.129 -0.018,-0.325 -0.041,-0.584M305.239,48.663c0,0.26 0.009,0.502 0.042,0.724c0.034,0.224 0.059,0.473 0.084,0.724c0,0.233 0.017,0.455 0.051,0.679c0.024,0.223 0.042,0.455 0.042,0.678c0,0.584 -0.135,1.106 -0.394,1.578c-0.26,0.465 -0.829,0.828 -1.7,1.088v0.047c0.143,0.064 0.32,0.148 0.529,0.251c0.2,0.091 0.402,0.24 0.6,0.424c0.412,0.337 0.78,0.792 1.114,1.395c0.336,0.595 0.503,1.395 0.503,2.395c0,1.877 -0.526,3.161 -1.59,3.839c-1.055,0.676 -2.302,1.021 -3.726,1.021h-7.141v-17.991h2.972v7.401h2.478c1.449,0 2.37,-0.204 2.762,-0.621c0.395,-0.428 0.588,-0.967 0.588,-1.645c0,-0.167 -0.011,-0.324 -0.017,-0.493c-0.018,-0.158 -0.025,-0.315 -0.025,-0.482c0,-0.185 -0.011,-0.37 -0.026,-0.557c-0.008,-0.167 -0.018,-0.352 -0.018,-0.548c0,-0.326 0.01,-0.66 0.044,-0.994c0.025,-0.336 0.117,-0.687 0.258,-1.039c0.059,-0.17 0.134,-0.337 0.244,-0.512c0.101,-0.176 0.208,-0.343 0.326,-0.51h3.132c-0.437,0.518 -0.727,1.048 -0.871,1.577c-0.144,0.53 -0.235,1.06 -0.261,1.571M298.375,-0.576v-15.956l24.445,0.212l-24.445,-81.544h72.601v14.184h-22.921l24.32,83.104zM228.235,-73.139l12.491,29.882l11.217,-29.882zM247.633,0l-41.819,-97.789h12.074l5.382,12.427h33.63l4.738,-12.427h36.211l-37.064,97.789zM21.774,-73.139l13.353,30.84l12.5,-30.84zM42.027,0l-42.891,-97.789h12.721l5.175,12.195h34.697l4.738,-12.195h24.785h12.927l-37.493,97.789zM149.79,-49.488l-19.62,49.488h-34.476v-97.789h11.847v58.813l25.006,-58.813h11.202l26.084,58.813v-32.037v-26.776h35.563v97.789h-32.549zM46.167,252.035c3.641,2.972 7.671,3.819 11.498,3.391c5.751,-4.681 15.142,-12.752 23.006,-19.766c-0.386,-10.005 6.125,-11.704 11.494,-11.073c7.474,-3.817 16.862,-8.07 21.47,-9.984c4.983,-2.128 3.066,-8.287 -7.288,-9.151c-3.063,1.07 -15.332,4.691 -19.162,5.536c-5.176,0.846 -8.624,-0.639 -13.994,-0.22c-7.087,3.407 -10.545,5.536 -19.549,12.13c-0.189,-1.273 -7.861,22.116 -7.475,29.137M109.608,428.517c1.725,1.7 -1.151,2.777 2.871,3.195c6.518,-2.34 8.627,-5.525 10.354,-9.575c1.531,-3.614 1.147,-5.741 0.379,-8.072c-2.687,-9.363 -4.215,-18.289 -5.939,-27.215c-1.918,-11.064 -3.638,-23.389 -4.986,-34.462c-0.954,-6.595 -1.527,-12.547 -1.908,-17.638c-0.385,-3.614 -0.578,-6.594 -0.578,-8.936c-0.577,-5.526 -0.96,-12.54 -3.069,-1.477c-0.954,3.391 -1.15,7.858 -1.339,12.53c-2.302,26.797 3.448,70.389 4.215,91.65M147.36,268.402c3.84,-8.082 4.991,-11.266 5.561,-15.307c0,-0.438 0.196,-2.128 0.386,-2.769c-7.664,-7.868 -10.165,-11.907 -13.798,-17.861c-4.408,-12.753 -4.989,-10.627 -15.145,-12.549c-2.301,2.759 -3.258,4.253 -2.872,7.867c9.967,3.196 10.155,9.363 9.967,15.53c-2.306,8.287 -6.902,11.054 -12.841,14.24c-0.961,2.127 -3.07,6.809 -2.684,10.849c1.339,2.545 3.637,4.254 6.324,5.098c7.661,0.652 19.168,-0.844 25.102,-5.098M131.459,348.357c0.377,2.982 0.377,2.333 2.876,2.554c5.367,0.428 11.876,-1.282 17.633,-3.195c5.364,-1.486 9.777,-3.4 12.647,-4.03c1.342,-0.437 1.728,-0.643 1.728,1.263v1.281c0,0.633 -0.194,1.061 -0.194,1.486c-0.192,1.488 0.385,1.488 1.532,1.273c1.532,0 2.881,-0.418 4.403,-0.845c22.622,-8.936 33.162,-72.73 19.942,-91.641c-7.292,-2.35 -10.741,-4.048 -13.226,-5.321c0,-2.35 0,-2.35 0.953,-4.683c2.109,0 5.365,-1.066 6.714,-1.903c2.1,-1.71 6.897,-10.228 8.046,-17.232c0.385,-2.777 -4.991,-4.263 -9.963,-4.689c-4.411,1.718 -6.337,4.904 -8.63,7.662c-2.103,2.767 -4.598,5.1 -9.577,5.323c-3.459,-0.854 -6.718,-1.495 -8.249,-0.854c-1.156,2.34 -0.569,4.468 0.385,6.167c1.917,1.701 4.597,2.971 6.515,3.827c1.732,0.853 1.732,0 1.54,2.34c-1.919,18.494 -11.507,31.042 -22.044,43.795c-4.03,4.905 -8.624,12.13 -9.389,14.687c-3.073,14.016 -5.563,28.07 -3.642,42.735M215.015,190.155c1.341,-4.255 -0.376,-9.159 0.963,-12.976c2.11,-5.536 4.026,-10.199 6.128,-15.103c1.735,-4.042 2.88,-8.287 5.568,-13.821c1.524,-3.392 4.211,-3.828 5.552,-7.003c1.145,-4.042 2.501,-10.209 2.686,-14.473c-0.378,-1.485 -1.724,-3.604 -2.872,-4.673c-1.155,-0.425 -2.695,0 -4.604,-0.223c-3.45,3.839 -5.751,8.101 -8.054,12.764c-1.524,4.254 0.386,7.439 -0.762,11.277c-2.686,8.498 -7.476,17.219 -12.081,24.456c-2.293,1.904 -4.597,3.186 -6.898,4.03c-5.935,7.442 -11.302,20.63 -11.881,27.44c1.342,2.544 3.836,5.09 7.863,5.527c3.642,-1.061 12.457,-7.44 18.392,-17.222M254.69,76.807c0.77,-1.914 1.338,-3.818 0.77,-5.526c-1.147,-3.195 -7.283,-6.586 -13.613,-7.868c-1.339,11.268 -1.909,19.135 -3.063,27.01c-2.496,0.216 -4.413,-1.068 -5.366,0c-0.378,4.245 0.385,11.258 3.071,12.549c3.826,1.701 16.669,-22.328 18.201,-26.165M217.694,91.91c-0.176,0 -0.375,-0.205 -0.568,-0.205c-9.77,7.219 -16.861,15.094 -18.018,23.39c-16.484,11.897 -20.118,19.134 -26.639,41.453c-2.487,5.955 -7.475,7.868 -11.688,9.997c-4.412,2.126 -8.05,4.253 -7.474,10.839c0.769,3.836 2.293,6.604 4.604,9.994c14.558,19.562 16.667,-4.032 29.703,-16.794c20.888,-16.58 13.604,-34.229 26.061,-54.652c3.259,-9.133 4.413,-13.59 4.019,-24.022M105.008,138.269c4.986,-6.809 2.491,-9.78 -4.22,-10.421c-9.002,13.404 -19.162,32.111 -31.042,41.881c-3.451,2.993 -5.945,4.681 -4.6,7.45c1.342,1.913 2.489,3.623 3.825,4.673c8.44,7.867 17.453,0.213 20.507,-12.53c2.119,-9.151 11.31,-27.653 15.53,-31.053M146.981,482.531c4.219,-1.487 5.563,-7.867 -2.298,-7.44c-1.728,0 -6.907,3.612 -7.096,4.672c3.069,2.981 6.903,3.194 9.394,2.768M206.208,473.391c1.331,-3.409 -2.118,-5.322 -5.567,-3.836c-2.487,0.845 -3.826,1.7 -5.935,2.981c3.448,4.478 10.347,3.187 11.502,0.855M14.549,228.638c2.872,-12.54 7.275,-23.613 17.054,-31.042c4.027,-3.826 6.907,-7.013 9.389,-10.859c2.491,-3.819 4.601,-8.285 6.325,-14.871c1.725,-11.063 5.366,-16.803 13.797,-23.175c5.939,-4.895 13.039,-8.925 20.32,-20.843c3.641,-11.916 9.2,-17.435 20.51,-22.544c8.435,-4.895 18.013,-7.868 23.955,-15.104c0.576,-2.34 1.148,-4.672 1.721,-6.575c0.772,-2.146 1.725,-3.632 3.262,-5.128c3.256,-4.02 8.236,-6.362 13.034,-6.362c10.922,-0.426 20.499,10.413 16.288,26.156c-4.604,11.482 -13.419,15.308 -23.185,10.85c0.568,-1.496 3.059,-5.324 4.023,-8.732c0.762,-1.7 0,-2.118 -1.533,-1.06c-5.174,3.623 -13.231,24.884 -14.952,28.081c-1.724,3.816 -3.451,7.217 -6.325,9.975c-1.917,1.709 -4.408,2.983 -6.707,4.05c-1.342,2.128 -9.581,14.891 -9.581,17.862c12.264,-6.808 27.401,-11.695 41.779,-13.19c2.677,-5.1 4.79,-8.509 7.284,-11.686c2.685,-3.195 5.931,-6.184 11.306,-10.644c6.707,-5.953 9.203,-8.702 13.028,-16.793c1.532,-3.827 3.459,-7.012 5.944,-10.209c2.881,-3.177 5.182,-6.156 6.706,-11.267c2.303,-7.868 4.22,-15.52 7.669,-22.747c8.046,-0.427 14.952,1.7 22.619,8.284c-0.384,-2.758 -0.96,-4.662 -0.384,-7.652c0.578,-2.768 15.523,-1.913 20.889,-1.059l4.988,-28.507c14.368,0 24.531,2.147 35.65,14.267c-3.843,7.219 -7.863,14.24 -11.697,21.253c-3.449,6.808 -4.027,11.907 -6.504,18.93c-0.971,2.767 -2.312,5.518 -4.23,8.722c-2.109,3.603 -3.833,6.575 -5.173,8.927c-3.641,6.158 -4.411,8.284 -5.75,15.735c-1.148,5.944 -1.92,11.906 -3.073,17.648c-1.332,7.865 -3.248,11.48 -6.506,18.074c-7.099,13.618 -10.54,24.449 -10.355,40.832c-1.725,13.396 -4.404,25.497 -8.616,38.056c-1.162,3.186 -2.503,6.167 -3.65,9.142c-1.918,5.106 -2.871,9.788 -3.063,15.092c2.87,25.534 -1.349,41.261 -9.009,64.444c8.431,8.926 32.575,-4.255 60.562,-4.894c7.091,0.416 16.284,1.923 19.742,9.575c-1.339,0.204 -2.871,0.204 -4.22,0.204c-3.256,0 -3.641,1.061 -3.834,3.195c-0.763,5.528 26.069,5.528 36.609,13.814c2.296,1.494 4.598,4.048 4.798,5.953c-1.156,0 -2.309,0 -3.458,0.214c-3.448,-0.214 -7.283,2.553 -1.917,4.895c4.79,2.118 14.568,4.032 20.128,8.295c1.531,1.495 4.402,4.03 4.98,6.38c-2.679,-0.437 -5.936,-0.853 -8.623,-1.068c-4.605,-0.428 -9.586,-0.649 -14.382,-0.854c-25.485,-0.855 -51.739,1.485 -77.038,2.564c-11.881,0.418 -22.614,-0.642 -34.502,-4.254c-6.514,-2.128 -12.456,-4.905 -20.502,-8.945c-4.412,-2.118 -4.605,-2.118 -9.385,-0.836c-3.073,1.058 -6.139,2.126 -9.78,2.962c-7.667,0 -17.639,-3.816 -26.261,-3.399c-4.024,0.213 -2.877,1.273 -2.685,5.537c0.389,17.424 1.917,35.092 3.073,52.526c0,1.69 0,2.759 2.486,2.963c4.408,0.213 8.624,0.428 12.65,1.923c4.601,1.273 9.013,5.312 13.225,7.653c7.86,0.845 16.1,1.273 24.529,1.273c2.879,-1.914 4.22,-3.614 7.868,-3.827c4.782,0 8.038,2.972 8.993,8.081c4.421,0.427 8.447,5.74 3.265,7.653c-4.22,1.07 -12.258,-0.213 -14.753,0.642c-8.63,2.135 -0.768,9.994 3.635,9.139c3.642,0.633 8.439,0.855 13.42,1.71c5.937,0.204 9.777,2.972 5.366,10.199c-2.679,2.341 -4.026,3.621 -4.788,6.808c-1.541,4.896 -1.146,9.353 -9.779,11.267c-14.952,1.058 -31.813,2.768 -47.719,5.749c-8.435,1.273 -15.723,1.904 -19.164,2.128c-2.688,0 -2.688,-1.068 -2.499,1.904c0.192,1.068 0.192,1.923 0.385,2.768v2.126c0.196,2.546 0.765,2.546 -1.922,2.341c-1.334,-0.212 -3.059,-0.437 -5.17,-0.64c-1.917,-0.428 -4.218,-0.64 -6.319,-0.855c-1.923,-0.213 -3.84,-0.213 -5.175,-0.213c-2.11,0 -1.921,0.213 -1.921,1.913v8.518v10.412c0,3.826 -1.152,-0.213 -1.72,-1.059c-1.153,-1.7 -2.688,-3.408 -4.216,-4.895c-1.535,-1.487 -3.072,-2.982 -4.604,-4.682c-1.339,-0.853 -2.299,-2.117 -2.877,-3.399c-0.761,-1.495 -1.531,-2.126 -1.531,-4.245c-1.147,-5.74 -3.068,-9.791 -6.518,-14.472c-8.432,-9.139 -16.869,-9.139 -24.341,-17.007c0.388,-1.699 0.197,-6.798 -1.921,-11.48c-2.098,-5.109 -4.979,-9.141 -8.431,-13.607c-4.023,-5.537 -7.853,-10.209 -12.457,-14.891c-2.106,-2.34 -3.827,-4.681 -3.827,-6.594c4.977,-1.692 6.322,-5.1 5.748,-8.714c-0.771,-3.826 -3.261,-7.866 -6.137,-10.849c-2.106,-17.647 -5.173,-36.151 -9.196,-54.217c-4.215,-18.075 -9.009,-36.15 -14.567,-52.517c-1.146,-9.993 -1.917,-20.426 -2.102,-30.838c-0.193,-7.866 -0.193,-15.316 0.185,-22.972c0.193,-4.672 0.582,-8.72 1.347,-13.392" fill="#ffffff"></path></g></g></g></g></svg>